<svg width="75" height="75" viewBox="0 0 75 75" fill="none" xmlns="http://www.w3.org/2000/svg">
<g clip-path="url(#clip0_30_103)">
<path d="M37.5 0C16.7894 0 0 16.7894 0 37.5C0 58.2106 16.7894 75 37.5 75C58.2106 75 75 58.2106 75 37.5C75 16.7894 58.2106 0 37.5 0ZM37.5 8.14819C53.7106 8.14819 66.8473 21.2935 66.8473 37.5C66.8473 53.7065 53.7106 66.8473 37.5 66.8473C21.2894 66.8473 8.15275 53.7066 8.15275 37.5C8.15281 21.2935 21.2894 8.14819 37.5 8.14819ZM51.8692 19.693L30.1346 41.4322L23.085 34.3826L16.1682 41.2949L23.2178 48.3444L30.1803 55.307L37.0926 48.3902L58.8317 26.6556L51.8692 19.693Z" fill="#52463B"/>
</g>
<defs>
<clipPath id="clip0_30_103">
<rect width="75" height="75" fill="white"/>
</clipPath>
</defs>
</svg>
